<svg width="193" height="193" viewBox="0 0 193 193" fill="none" xmlns="http://www.w3.org/2000/svg">
<circle cx="96.5" cy="96.5" r="95.5" stroke="black" stroke-width="2"></circle>
<path d="M95.9424 10.0405C72.8663 10.0405 50.7292 19.2101 34.4121 35.5272C18.0948 51.8443 8.9248 73.982 8.9248 97.0579C8.9248 120.134 18.0948 142.271 34.4121 158.589C50.7292 174.906 72.8663 184.075 95.9424 184.075C119.018 184.075 141.155 174.906 157.472 158.589C173.79 142.271 182.959 120.134 182.959 97.0579C182.959 73.982 173.79 51.8443 157.472 35.5272C141.155 19.2101 119.018 10.0405 95.9424 10.0405ZM95.9424 23.4826C115.458 23.4826 134.168 31.2323 147.968 45.0323C161.768 58.8321 169.518 77.5419 169.518 97.0579C169.518 116.574 161.768 135.284 147.968 149.083C134.168 162.883 115.458 170.633 95.9424 170.633C76.4265 170.633 57.7168 162.883 43.9171 149.083C30.1173 135.284 22.3671 116.574 22.3671 97.0579C22.3671 77.5419 30.1169 58.8321 43.9171 45.0323C57.7168 31.2323 76.4265 23.4826 95.9424 23.4826ZM110.903 64.9169H153.184L150.377 77.9544H122.944L120.319 90.4486H143.859L141.323 102.49H117.784L114.796 116.161H143.044L140.328 129.199H97.2315L110.903 64.9169ZM38.7001 129.199L52.3719 64.9169H79.9853C82.5208 64.9169 84.7544 65.43 86.6855 66.456C88.6773 67.4821 90.337 68.8402 91.6649 70.5302C93.0533 72.2203 94.1095 74.1518 94.8339 76.3247C95.5582 78.4976 95.9206 80.7309 95.9206 83.0245C95.9206 85.2577 95.5582 87.4608 94.8339 89.6338C94.1698 91.8067 93.2039 93.889 91.9363 95.8808C90.7291 97.8123 89.2506 99.5928 87.5005 101.223C85.8106 102.852 83.9392 104.21 81.8866 105.297L90.1254 129.199H73.3762L66.3145 108.466H57.8947L53.5486 129.199H38.7001ZM73.014 95.5187C73.9196 95.5187 74.8249 95.2471 75.7303 94.7039C76.6356 94.1003 77.4506 93.3156 78.1747 92.3499C78.8991 91.3238 79.4725 90.1468 79.895 88.8189C80.3779 87.491 80.6192 86.0726 80.6192 84.5636C80.6192 82.5718 80.1967 80.9723 79.3518 79.7651C78.5068 78.558 77.4807 77.9544 76.2734 77.9544H64.4132L60.701 95.5187H73.014Z" fill="black"></path>
</svg>